@startuml
!include InternHunterStyle.puml
skinparam arrowThickness 1.1
skinparam arrowColor LOGIC_COLOR_T4
skinparam classBackgroundColor LOGIC_COLOR

package Command {

class "ABSTRACT\nCommand" as Command
class "ABSTRACT\nABCCommand" as ABCCommand
class ABCCompanyCommand
class ABCInternshipCommand
class ABCApplicationCommand
class ABCProfileCommand
class XYZCommand

}

hide members

Command <|-- ABCCommand
ABCCommand <|-- ABCCompanyCommand
ABCCommand <|-- ABCInternshipCommand
ABCCommand <|-- ABCApplicationCommand
ABCCommand <|-- ABCProfileCommand
Command <|-- XYZCommand

@enduml
