@startuml
!include InternHunterStyle.puml
skinparam arrowThickness 1.1
skinparam arrowColor LOGIC_COLOR_T4
skinparam classBackgroundColor LOGIC_COLOR
skinparam defaultFontColor #DDDDDD

class DeleteCompanyCommand {
    {static} +MESSAGE_USAGE: String
    -targetIndex: Index
    +DeleteCompanyCommand(targetIndex: Index)
    +execute(model: Model): CommandResult
    +equals(other: Object): boolean
    -deleteAllInternshipsInCompany(model: Model, company: CompanyItem)
}

class "ABSTRACT\nDeleteCommand" as DeleteCommand {
    {static} +COMMAND_WORD: String
    {static} +MESSAGE_USAGE: String
}

class "ABSTRACT\nCommand" as Command {
    +execute(model: Model): CommandResult ABSTRACT
}

DeleteCommand <|-- DeleteCompanyCommand
Command <|-- DeleteCommand
@enduml
